# xmcd
#
# Track frame offsets: 
#        150
#        63527
#        88015
#        116407
#        146097
#        180162
#        198737
#
# Disc length: 2843 seconds
#
# Revision: 5
# Processed by: cddbd v1.4PL0 Copyright (c) Steve Scherf et al.
# Submitted via: ExactAudioCopy v0.95a3
#
DISCID=600b1907
DTITLE=John Coltrane - Coltrane
DYEAR=1962
DGENRE=Jazz
TTITLE0=Out Of This World
TTITLE1=Soul Eyes
TTITLE2=The Inch Worm
TTITLE3=Tunji
TTITLE4=Miles' Mode
TTITLE5=Big Nick
TTITLE6=Up 'Gainst The Wall
EXTD=
EXTT0=
EXTT1=
EXTT2=
EXTT3=
EXTT4=
EXTT5=
EXTT6=
PLAYORDER=
